<?xml version="1.0" encoding="UTF-8"?>
<svg width="160px" height="49px" viewBox="0 0 160 49" version="1.1" xmlns="http://www.w3.org/2000/svg" xmlns:xlink="http://www.w3.org/1999/xlink">
    <!-- Generator: Sketch 46.2 (44496) - http://www.bohemiancoding.com/sketch -->
    <title>Group 15</title>
    <desc>Created with Sketch.</desc>
    <defs></defs>
    <g id="Page-1" stroke="none" stroke-width="1" fill="none" fill-rule="evenodd">
        <g id="appstore-main" transform="translate(-457.000000, -1049.000000)">
            <g id="Group-15" transform="translate(458.000000, 1050.000000)">
                <g id="Group-14">
                    <rect id="Rectangle-3" stroke="#909AA2" x="-0.5" y="-0.5" width="159" height="48" rx="2"></rect>
                    <path d="M15.001434,8.17391304 C13.5725915,8.17391304 12.4142857,9.3199166 12.4142857,10.7390925 L12.4142857,37.2826466 C12.4142857,38.6993561 13.5713102,39.8478261 15.001434,39.8478261 L27.8842803,39.8478261 C29.3131228,39.8478261 30.4714286,38.7018225 30.4714286,37.2826466 L30.4714286,10.7390925 C30.4714286,9.32238301 29.3144041,8.17391304 27.8842803,8.17391304 L15.001434,8.17391304 L15.001434,8.17391304 Z M14.1071429,12.3278689 L14.1071429,35.6938703 L28.7785714,35.6938703 L28.7785714,12.3278689 L14.1071429,12.3278689 L14.1071429,12.3278689 Z M21.4428571,38.8093371 C22.0661499,38.8093371 22.5714286,38.3443898 22.5714286,37.7708482 C22.5714286,37.1973066 22.0661499,36.7323592 21.4428571,36.7323592 C20.8195644,36.7323592 20.3142857,37.1973066 20.3142857,37.7708482 C20.3142857,38.3443898 20.8195644,38.8093371 21.4428571,38.8093371 L21.4428571,38.8093371 Z M19.1857143,10.2508909 C19.1857143,10.5376618 19.3796875,10.7701354 19.6350652,10.7701354 L23.2506491,10.7701354 C23.4988187,10.7701354 23.7,10.5292749 23.7,10.2508909 C23.7,9.96412014 23.5060268,9.73164647 23.2506491,9.73164647 L19.6350652,9.73164647 C19.3868955,9.73164647 19.1857143,9.97250695 19.1857143,10.2508909 Z" id="iPhone-Vector" fill="#909AA2"></path>
                    <path d="M45.2293509,14.0060468 L41.9926081,14.0060468 L41.0446081,16.6053512 L39.8257509,16.6053512 L42.9270652,8.34152508 L44.3490652,8.34152508 L47.4639223,16.6053512 L46.2044366,16.6053512 L45.2293509,14.0060468 Z M42.2363795,13.1723077 L44.9855795,13.1723077 L44.0917509,10.793699 C43.8886081,10.2542207 43.7531795,9.76378595 43.6177509,9.28561204 L43.5906652,9.28561204 C43.4552366,9.77604682 43.3062652,10.2787425 43.1302081,10.7814381 L42.2363795,13.1723077 Z M47.9379223,10.6710903 L50.4298081,16.6053512 L51.5674081,16.6053512 L54.1405509,10.6710903 L52.8946081,10.6710903 L51.6215795,14.0060468 C51.4048938,14.5455251 51.2152938,15.0359599 51.0663223,15.5263946 L51.0256938,15.5263946 C50.8902652,15.0359599 50.7142081,14.5455251 50.4975223,14.0060468 L49.2109509,10.6710903 L47.9379223,10.6710903 Z M60.194208,16.6053512 L59.1107795,16.6053512 L59.0159795,15.8574381 L58.9753509,15.8574381 C58.6096938,16.3233512 57.9054652,16.7402207 56.971008,16.7402207 C55.643808,16.7402207 54.9666652,15.8942207 54.9666652,15.0359599 C54.9666652,13.6014381 56.3751223,12.8167425 58.9076366,12.8290033 L58.9076366,12.7063946 C58.9076366,12.2159599 58.7586652,11.3331773 57.4179223,11.3331773 C56.8084938,11.3331773 56.1719795,11.5048294 55.7115223,11.7745686 L55.4406652,11.0634381 C55.9823795,10.7446555 56.7678652,10.5362207 57.5939795,10.5362207 C59.5983223,10.5362207 60.0858652,11.7745686 60.0858652,12.9638729 L60.0858652,15.1830903 C60.0858652,15.6980468 60.1129509,16.2007425 60.194208,16.6053512 Z M58.9347223,14.6068294 L58.9347223,13.5769164 C57.634608,13.5523946 56.1584366,13.7608294 56.1584366,14.9133512 C56.1584366,15.6122207 56.6730652,15.9432642 57.2824938,15.9432642 C58.1356938,15.9432642 58.677408,15.4528294 58.867008,14.9501338 C58.9076366,14.839786 58.9347223,14.7171773 58.9347223,14.6068294 Z M63.4715795,16.6053512 L63.4715795,10.6710903 L62.279808,10.6710903 L62.279808,16.6053512 L63.4715795,16.6053512 Z M62.8756938,8.32926421 C62.4423223,8.32926421 62.1308366,8.62352508 62.1308366,9.00361204 C62.1308366,9.37143813 62.4287795,9.665699 62.848608,9.665699 C63.322608,9.665699 63.6205509,9.37143813 63.607008,9.00361204 C63.607008,8.62352508 63.322608,8.32926421 62.8756938,8.32926421 Z M65.7196937,16.6053512 L66.9114652,16.6053512 L66.9114652,7.90013378 L65.7196937,7.90013378 L65.7196937,16.6053512 Z M73.8995795,16.6053512 L72.8161509,16.6053512 L72.7213509,15.8574381 L72.6807223,15.8574381 C72.3150652,16.3233512 71.6108366,16.7402207 70.6763795,16.7402207 C69.3491795,16.7402207 68.6720366,15.8942207 68.6720366,15.0359599 C68.6720366,13.6014381 70.0804937,12.8167425 72.613008,12.8290033 L72.613008,12.7063946 C72.613008,12.2159599 72.4640366,11.3331773 71.1232937,11.3331773 C70.5138652,11.3331773 69.8773509,11.5048294 69.4168937,11.7745686 L69.1460366,11.0634381 C69.6877509,10.7446555 70.4732366,10.5362207 71.2993509,10.5362207 C73.3036937,10.5362207 73.7912366,11.7745686 73.7912366,12.9638729 L73.7912366,15.1830903 C73.7912366,15.6980468 73.8183223,16.2007425 73.8995795,16.6053512 Z M72.6400937,14.6068294 L72.6400937,13.5769164 C71.3399795,13.5523946 69.863808,13.7608294 69.863808,14.9133512 C69.863808,15.6122207 70.3784366,15.9432642 70.9878652,15.9432642 C71.8410652,15.9432642 72.3827795,15.4528294 72.5723795,14.9501338 C72.613008,14.839786 72.6400937,14.7171773 72.6400937,14.6068294 Z M76.9602652,16.6053512 L75.931008,16.6053512 C75.9580937,16.2007425 75.9851795,15.5999599 75.9851795,15.0727425 L75.9851795,7.90013378 L77.163408,7.90013378 L77.163408,11.6274381 L77.1904937,11.6274381 C77.6103223,10.9653512 78.3687223,10.5362207 79.4250652,10.5362207 C81.050208,10.5362207 82.2013509,11.7623077 82.187808,13.5646555 C82.187808,15.685786 80.7116366,16.7402207 79.249008,16.7402207 C78.301008,16.7402207 77.542608,16.4091773 77.0550652,15.6244816 L77.0144366,15.6244816 L76.9602652,16.6053512 Z M77.163408,13.1600468 L77.163408,14.2267425 C77.163408,14.361612 77.1904937,14.4964816 77.2175795,14.6190903 C77.447808,15.3670033 78.1384937,15.8819599 79.0052366,15.8819599 C80.2511795,15.8819599 80.9960366,14.9623946 80.9960366,13.6014381 C80.9960366,12.4121338 80.3188937,11.3944816 79.0458652,11.3944816 C78.2332937,11.3944816 77.4748937,11.8971773 77.2311223,12.7186555 C77.2040366,12.8412642 77.163408,12.9883946 77.163408,13.1600468 Z M83.9619223,16.6053512 L85.1536937,16.6053512 L85.1536937,7.90013378 L83.9619223,7.90013378 L83.9619223,16.6053512 Z M92.6970652,13.8343946 L88.0924937,13.8343946 C88.1195794,15.2934381 89.1488366,15.8942207 90.340608,15.8942207 C91.193808,15.8942207 91.7084366,15.7593512 92.1553509,15.587699 L92.3584937,16.3601338 C91.9386652,16.531786 91.2208937,16.7279599 90.1780937,16.7279599 C88.160208,16.7279599 86.9548937,15.5263946 86.9548937,13.7363077 C86.9548937,11.9462207 88.1195794,10.5362207 90.0291223,10.5362207 C92.1688937,10.5362207 92.7376937,12.2404816 92.7376937,13.331699 C92.7376937,13.5523946 92.710608,13.7240468 92.6970652,13.8343946 Z M88.1060366,13.0619599 L91.5865509,13.0619599 C91.6000937,12.3753512 91.2750652,11.3086555 89.9343223,11.3086555 C88.729008,11.3086555 88.2008366,12.3140468 88.1060366,13.0619599 Z M100.402951,10.5362207 C102.285408,10.5362207 103.558437,11.7745686 103.558437,13.5891773 C103.558437,15.7838729 101.879122,16.7402207 100.294608,16.7402207 C98.5204937,16.7402207 97.1526651,15.5631773 97.1526651,13.6872642 C97.1526651,11.7010033 98.588208,10.5362207 100.402951,10.5362207 Z M100.375865,11.3454381 C98.967408,11.3454381 98.3579794,12.5224816 98.3579794,13.6504816 C98.3579794,14.9501338 99.1840937,15.9310033 100.348779,15.9310033 C101.486379,15.9310033 102.339579,14.9623946 102.339579,13.6259599 C102.339579,12.6205686 101.784322,11.3454381 100.375865,11.3454381 Z M105.332551,16.6053512 L106.524322,16.6053512 L106.524322,13.0374381 C106.524322,12.8535251 106.551408,12.669612 106.605579,12.5347425 C106.808722,11.9339599 107.418151,11.4312642 108.203637,11.4312642 C109.327694,11.4312642 109.720437,12.2282207 109.720437,13.1845686 L109.720437,16.6053512 L110.912208,16.6053512 L110.912208,13.0619599 C110.912208,11.0266555 109.503751,10.5362207 108.596379,10.5362207 C107.512951,10.5362207 106.754551,11.0879599 106.429522,11.6519599 L106.402437,11.6519599 L106.334722,10.6710903 L105.278379,10.6710903 C105.319008,11.1615251 105.332551,11.6642207 105.332551,12.2772642 L105.332551,16.6053512 Z M116.532494,9.24882943 L116.532494,10.6710903 L115.516779,10.6710903 L115.516779,11.4925686 L116.532494,11.4925686 L116.532494,14.7294381 C116.532494,15.4283077 116.654379,15.9555251 116.992951,16.2743077 C117.277351,16.5685686 117.724265,16.7279599 118.279522,16.7279599 C118.739979,16.7279599 119.105637,16.6666555 119.335865,16.5808294 L119.281694,15.771612 C119.132722,15.8083946 118.902494,15.8451773 118.591008,15.8451773 C117.927408,15.8451773 117.697179,15.4283077 117.697179,14.6926555 L117.697179,11.4925686 L119.403579,11.4925686 L119.403579,10.6710903 L117.697179,10.6710903 L117.697179,8.96682943 L116.532494,9.24882943 Z M121.015179,16.6053512 L122.206951,16.6053512 L122.206951,13.0251773 C122.206951,12.8167425 122.220494,12.6573512 122.288208,12.5102207 C122.504894,11.921699 123.114322,11.4312642 123.886265,11.4312642 C125.010322,11.4312642 125.403065,12.2404816 125.403065,13.1968294 L125.403065,16.6053512 L126.594837,16.6053512 L126.594837,13.0742207 C126.594837,11.0266555 125.186379,10.5362207 124.306094,10.5362207 C123.859179,10.5362207 123.439351,10.6588294 123.087237,10.8427425 C122.721579,11.0266555 122.423637,11.2963946 122.234037,11.6029164 L122.206951,11.6029164 L122.206951,7.90013378 L121.015179,7.90013378 L121.015179,16.6053512 Z M134.070494,13.8343946 L129.465922,13.8343946 C129.493008,15.2934381 130.522265,15.8942207 131.714037,15.8942207 C132.567237,15.8942207 133.081865,15.7593512 133.528779,15.587699 L133.731922,16.3601338 C133.312094,16.531786 132.594322,16.7279599 131.551522,16.7279599 C129.533637,16.7279599 128.328322,15.5263946 128.328322,13.7363077 C128.328322,11.9462207 129.493008,10.5362207 131.402551,10.5362207 C133.542322,10.5362207 134.111122,12.2404816 134.111122,13.331699 C134.111122,13.5523946 134.084037,13.7240468 134.070494,13.8343946 Z M129.479465,13.0619599 L132.959979,13.0619599 C132.973522,12.3753512 132.648494,11.3086555 131.307751,11.3086555 C130.102437,11.3086555 129.574265,12.3140468 129.479465,13.0619599 Z" id="Available-on-the" fill="#909AA2"></path>
                    <path d="M48.4339575,33.9059344 L42.2634859,33.9059344 L40.4562349,38.861204 L38.1326263,38.861204 L44.0449192,23.1071864 L46.7557958,23.1071864 L52.6939065,38.861204 L50.2928444,38.861204 L48.4339575,33.9059344 Z M42.7282077,32.3165083 L47.9692358,32.3165083 L46.2652562,27.7819691 C45.8779881,26.7535169 45.6198094,25.8185603 45.3616307,24.9069777 L45.3099949,24.9069777 C45.0518162,25.8419343 44.7678196,26.8002647 44.4321873,27.7585952 L42.7282077,32.3165083 Z M54.180826,43.4892389 L54.180826,31.2413082 C54.180826,29.7921256 54.1291902,28.6234299 54.0775545,27.5482299 L56.1171664,27.5482299 L56.2204379,29.4882647 L56.2720737,29.4882647 C57.2015171,28.1092039 58.6731358,27.2911169 60.7127478,27.2911169 C63.7334389,27.2911169 66.0054117,29.6051343 66.0054117,33.0410996 C66.0054117,37.1081605 63.2687172,39.1183171 60.3254797,39.1183171 C58.6731358,39.1183171 57.2273349,38.4638475 56.4786166,37.3418996 L56.4269809,37.3418996 L56.4269809,43.4892389 L54.180826,43.4892389 Z M56.4269809,32.3165083 L56.4269809,34.2565431 C56.4269809,34.5604039 56.4786166,34.8408909 56.5302524,35.098004 C56.9433383,36.5238127 58.3116856,37.505517 59.9382116,37.505517 C62.3392737,37.505517 63.7334389,35.7290996 63.7334389,33.1345952 C63.7334389,30.8673256 62.4167274,28.9272908 60.0156652,28.9272908 C58.4665928,28.9272908 57.020792,29.9323691 56.5818881,31.4750474 C56.5044345,31.7321604 56.4269809,32.0360213 56.4269809,32.3165083 Z M67.9570528,43.4892389 L67.9570528,31.2413082 C67.9570528,29.7921256 67.9054171,28.6234299 67.8537813,27.5482299 L69.8933933,27.5482299 L69.9966648,29.4882647 L70.0483005,29.4882647 C70.9777439,28.1092039 72.4493627,27.2911169 74.4889746,27.2911169 C77.5096657,27.2911169 79.7816385,29.6051343 79.7816385,33.0410996 C79.7816385,37.1081605 77.044944,39.1183171 74.1017065,39.1183171 C72.4493627,39.1183171 71.0035618,38.4638475 70.2548435,37.3418996 L70.2032077,37.3418996 L70.2032077,43.4892389 L67.9570528,43.4892389 Z M70.2032077,32.3165083 L70.2032077,34.2565431 C70.2032077,34.5604039 70.2548435,34.8408909 70.3064792,35.098004 C70.7195652,36.5238127 72.0879125,37.505517 73.7144384,37.505517 C76.1155006,37.505517 77.5096657,35.7290996 77.5096657,33.1345952 C77.5096657,30.8673256 76.1929542,28.9272908 73.7918921,28.9272908 C72.2428197,28.9272908 70.7970188,29.9323691 70.358115,31.4750474 C70.2806614,31.7321604 70.2032077,32.0360213 70.2032077,32.3165083 Z M85.4921719,38.0898649 C86.4216153,38.6508388 88.2546843,39.0949431 89.932846,39.0949431 C94.0378878,39.0949431 96.025864,36.9912909 96.025864,34.5604039 C96.025864,32.2463865 94.5284274,30.9608213 91.5851899,29.9323691 C89.1841277,29.0909082 88.1255949,28.3663169 88.1255949,26.8937604 C88.1255949,25.8185603 89.0292205,24.5329951 91.4044648,24.5329951 C92.979355,24.5329951 94.1411593,25.0004734 94.7091525,25.2809603 L95.3287814,23.6214125 C94.5542452,23.224056 93.2633516,22.8500733 91.4819184,22.8500733 C88.0997771,22.8500733 85.8536221,24.6732386 85.8536221,27.1274995 C85.8536221,29.3480213 87.6092375,30.6803343 90.4492035,31.5919169 C92.7986299,32.4100039 93.7280733,33.2514648 93.7280733,34.7240213 C93.7280733,36.3134475 92.3855439,37.4120214 90.0877533,37.4120214 C88.5386809,37.4120214 87.0670621,36.9445431 86.0601651,36.3835692 L85.4921719,38.0898649 Z M98.5454983,24.836856 L98.5454983,27.5482299 L96.6091579,27.5482299 L96.6091579,29.1142821 L98.5454983,29.1142821 L98.5454983,35.2849953 C98.5454983,36.6173083 98.7778592,37.6223866 99.423306,38.2301084 C99.9654813,38.7910823 100.817471,39.0949431 101.876004,39.0949431 C102.753812,39.0949431 103.450894,38.9780736 103.889798,38.8144562 L103.786526,37.2717779 C103.50253,37.3418996 103.063626,37.4120214 102.469815,37.4120214 C101.204739,37.4120214 100.765835,36.6173083 100.765835,35.2148735 L100.765835,29.1142821 L104.018887,29.1142821 L104.018887,27.5482299 L100.765835,27.5482299 L100.765835,24.299256 L98.5454983,24.836856 Z M110.798471,27.2911169 C114.387155,27.2911169 116.814035,29.6518821 116.814035,33.1112213 C116.814035,37.2951518 113.612619,39.1183171 110.591928,39.1183171 C107.209786,39.1183171 104.602181,36.8744214 104.602181,33.2982126 C104.602181,29.5116387 107.338876,27.2911169 110.798471,27.2911169 Z M110.746835,28.8337952 C108.061776,28.8337952 106.899972,31.0776909 106.899972,33.2280909 C106.899972,35.7057257 108.474862,37.5756388 110.695199,37.5756388 C112.863901,37.5756388 114.490426,35.7290996 114.490426,33.1813431 C114.490426,31.2646822 113.431894,28.8337952 110.746835,28.8337952 Z M118.765676,38.861204 L121.011831,38.861204 L121.011831,32.8307344 C121.011831,32.4801257 121.063467,32.1528909 121.115103,31.8724039 C121.424917,30.3297256 122.560903,29.2311517 124.161612,29.2311517 C124.471426,29.2311517 124.703787,29.2545256 124.936148,29.3012734 L124.936148,27.3612386 C124.729605,27.3144908 124.54888,27.2911169 124.290701,27.2911169 C122.767446,27.2911169 121.399099,28.2494473 120.831106,29.7687517 L120.727835,29.7687517 L120.650381,27.5482299 L118.662405,27.5482299 C118.739858,28.600056 118.765676,29.7453778 118.765676,31.0776909 L118.765676,38.861204 Z M136.078952,33.5786996 L127.300875,33.5786996 C127.352511,36.3601953 129.314669,37.505517 131.586642,37.505517 C133.213168,37.505517 134.194247,37.248404 135.046237,36.9211692 L135.433505,38.3937257 C134.633151,38.7209605 133.264803,39.0949431 131.276827,39.0949431 C127.429964,39.0949431 125.132174,36.8042996 125.132174,33.3917083 C125.132174,29.9791169 127.352511,27.2911169 130.992831,27.2911169 C135.072055,27.2911169 136.156405,30.5400908 136.156405,32.6203691 C136.156405,33.0410996 136.104769,33.3683344 136.078952,33.5786996 Z M127.326693,32.106143 L133.961886,32.106143 C133.987704,30.7972039 133.368075,28.7636734 130.812106,28.7636734 C128.514315,28.7636734 127.507418,30.6803343 127.326693,32.106143 Z" id="App-Store" fill="#909AA2"></path>
                </g>
            </g>
        </g>
    </g>
</svg>