<svg width="14" height="10" viewBox="0 0 14 10" version="1.1" xmlns="http://www.w3.org/2000/svg" xmlns:xlink="http://www.w3.org/1999/xlink" xmlns:figma="http://www.figma.com/figma/ns">
<title>email_ico_white</title>
<desc>Created using Figma</desc>
<g id="Canvas" transform="translate(2115 -1265)" figma:type="canvas">
<g id="email_ico_white" figma:type="frame">
<g id="Rectangle 6" figma:type="vector">
<use xlink:href="#path0_fill" transform="translate(-2115 1267.5)" fill="#FFFFFF"/>
</g>
<g id="Rectangle 6 Copy" figma:type="vector">
<use xlink:href="#path1_fill" transform="matrix(1 0 0 -1 -2115 1271.25)" fill="#FFFFFF"/>
</g>
</g>
</g>
<defs>
<path id="path0_fill" fill-rule="evenodd" d="M 0 0L 7 4.58333L 14 0L 14 6.5C 14 7.05228 13.5523 7.5 13 7.5L 1 7.5C 0.447715 7.5 0 7.05228 0 6.5L 0 0Z"/>
<path id="path1_fill" fill-rule="evenodd" d="M 0 4.58333L 7 0L 14 4.58333L 14 5.25C 14 5.80228 13.5523 6.25 13 6.25L 1 6.25C 0.447715 6.25 0 5.80228 0 5.25L 0 4.58333Z"/>
</defs>
</svg>
