<svg width="23" height="23" viewBox="0 0 23 23" version="1.1" xmlns="http://www.w3.org/2000/svg" xmlns:xlink="http://www.w3.org/1999/xlink" xmlns:figma="http://www.figma.com/figma/ns">
<title>Group 4</title>
<desc>Created using Figma</desc>
<g id="Canvas" transform="translate(-1172 -1259)" figma:type="canvas">
<g id="Group 4" figma:type="frame">
<g id="Group 3" figma:type="frame">
<g id="Group 2" figma:type="frame">
<g id="Imported Layers + Oval 1" figma:type="frame">
<g id="Imported Layers" figma:type="frame">
<g id="Fill 1" figma:type="vector">
<use xlink:href="#path0_fill" transform="translate(1177.75 1266.4)" fill="#FFFFFF"/>
</g>
<g id="Fill 2" figma:type="vector">
<use xlink:href="#path1_fill" transform="translate(1185.35 1266.4)" fill="#FFFFFF"/>
</g>
</g>
</g>
</g>
<g id="Oval" figma:type="vector">
<use xlink:href="#path2_stroke" transform="translate(1173 1260)" fill="#CFCFCF"/>
</g>
</g>
</g>
</g>
<defs>
<path id="path0_fill" fill-rule="evenodd" d="M 4.79717 0C 4.61744 0 4.52784 0.0860985 4.52784 0.257803L 4.52784 3.12569L 2.68338 3.12569L 2.68338 0.257803C 2.68338 0.180497 2.66759 0.118315 2.63622 0.0710453C 2.60463 0.0237052 2.5396 0 2.44092 0L 1.43067 0C 1.25087 0 1.16119 0.0856764 1.16119 0.256748L 1.16119 3.12689L 0.255975 3.12689C 0.0854726 3.12689 0 3.20391 0 3.35796L 0 4.16668C 0 4.31215 0.0808964 4.38495 0.242468 4.38495L 1.16119 4.38495L 1.16119 7.67644C 1.16119 7.83907 1.25087 7.92038 1.43067 7.92038L 2.44092 7.92038C 2.5396 7.92038 2.60463 7.89689 2.63622 7.84976C 2.66759 7.80284 2.68338 7.74502 2.68338 7.67644L 2.68338 4.38382L 4.52784 4.38382L 4.52784 7.67644C 4.52784 7.83907 4.61744 7.92038 4.79717 7.92038L 5.80749 7.92038C 5.90618 7.92038 5.97128 7.89689 6.00279 7.84976C 6.03416 7.80284 6.04996 7.74502 6.04996 7.67644L 6.04996 0.256748C 6.04996 0.179794 6.03416 0.117752 6.00279 0.0706232C 5.97128 0.0237052 5.90618 0 5.80749 0L 4.79717 0Z"/>
<path id="path1_fill" fill-rule="evenodd" d="M 1.5222 6.66232L 1.5222 0.256748C 1.5222 0.0856764 1.43672 0 1.26629 0L 0.255975 0C 0.085325 0 0 0.0856764 0 0.256748L 0 7.68924C 0 7.84336 0.0896799 7.92038 0.269482 7.92038L 3.88502 7.92038C 4.05545 7.92038 4.141 7.84336 4.141 7.68924L 4.141 6.88052C 4.141 6.73512 4.0601 6.66232 3.89853 6.66232L 1.5222 6.66232Z"/>
<path id="path2_stroke" d="M 10.5 21.5C 16.5751 21.5 21.5 16.5751 21.5 10.5L 20.5 10.5C 20.5 16.0228 16.0228 20.5 10.5 20.5L 10.5 21.5ZM 21.5 10.5C 21.5 4.42487 16.5751 -0.5 10.5 -0.5L 10.5 0.5C 16.0228 0.5 20.5 4.97715 20.5 10.5L 21.5 10.5ZM 10.5 -0.5C 4.42487 -0.5 -0.5 4.42487 -0.5 10.5L 0.5 10.5C 0.5 4.97715 4.97715 0.5 10.5 0.5L 10.5 -0.5ZM -0.5 10.5C -0.5 16.5751 4.42487 21.5 10.5 21.5L 10.5 20.5C 4.97715 20.5 0.5 16.0228 0.5 10.5L -0.5 10.5Z"/>
</defs>
</svg>
